<?xml version="1.0" encoding="UTF-8"?>
<!DOCTYPE svg PUBLIC "-//W3C//DTD SVG 1.1//EN" "http://www.w3.org/Graphics/SVG/1.1/DTD/svg11.dtd">
<!-- Creator: CorelDRAW 2019 (64-Bit) -->
<svg xmlns="http://www.w3.org/2000/svg" xml:space="preserve" width="1083.19mm" height="299.299mm" version="1.1" style="shape-rendering:geometricPrecision; text-rendering:geometricPrecision; image-rendering:optimizeQuality; fill-rule:evenodd; clip-rule:evenodd"
viewBox="0 0 108318.78 29929.92"
 xmlns:xlink="http://www.w3.org/1999/xlink">
 <defs>
  <style type="text/css">
   <![CDATA[
    .fil0 {fill:#fff;fill-rule:nonzero}
   ]]>
  </style>
 </defs>
 <g id="Слой_x0020_1">
  <metadata id="CorelCorpID_0Corel-Layer"/>
  <path class="fil0" d="M38606.09 26619.92c0,-659.1 -384.69,-946.66 -1070.47,-946.84 -828.89,0 -1035.53,506.51 -1071.61,839.95l310.57 0c65.31,-244.49 154.91,-557.69 754.46,-557.69 676.48,0 766.07,396.36 766.07,693.43l0 302.28c-119.46,0 -316.84,0 -566.19,0 -898.42,0 -1408.61,299.42 -1408.61,957.75 0,448.75 299.73,897.96 995.46,897.96 615.25,0 877.63,-308.49 979.66,-528.47 11.71,253.09 29.72,385.26 53.64,456.68l299.01 0c-17.98,-95.16 -41.99,-309.07 -41.99,-572.63l0 -1542.42zm-305.13 700.76l0 0c0,640.2 -118.64,1203.82 -968.17,1203.82 -416.78,0 -683.34,-255.45 -683.34,-628.66 0,-509.17 408.3,-682.19 1069.8,-682.19 195.75,0 468.84,0 581.71,0l0 107.03z"/>
  <polygon class="fil0" points="39588.66,28734.97 39900.23,28734.97 39900.23,24331.8 39588.66,24331.8 "/>
  <path class="fil0" d="M43126.24 25744.87l-311.53 0 0 1538.22c0,849.13 -249.58,1222.07 -914.17,1222.07 -588.07,0 -725.05,-421.31 -725.05,-855.39l0 -1904.9 -305.67 0 0 1978.68c0,911.1 547.72,1083.21 983.2,1083.21 529.97,0 834.65,-236.38 961.69,-588.07 0.04,241.99 6.08,438.42 18.06,516.28l299.41 0c-0.09,-116.99 -5.94,-580.15 -5.94,-873.01l0 -2117.09z"/>
  <path class="fil0" d="M47154.39 25673.08c-526.48,0 -825.21,279.64 -975.62,589.03 -119.55,-379.32 -447.05,-589.03 -866.78,-589.03 -496.07,0 -770.93,302.74 -897.42,600.12 5.76,-172.24 -6.36,-427.37 -12.44,-528.33l-304.81 0c5.94,233.75 5.94,514.29 5.94,771.46l0 2218.64 311.31 0 0 -1645.06c0,-607.91 278.94,-1115.18 854.71,-1115.18 546.95,0 677.52,403.01 677.52,836.82l0 1923.42 305.31 0 0 -1722.01c0,-577.34 260.88,-1038.41 836.97,-1038.41 552.49,0 695.27,432.67 695.27,830.43l0 1929.99 311.08 0 0 -1967.26c0,-830.12 -478.24,-1094.63 -941.04,-1094.63z"/>
  <polygon class="fil0" points="49072.91,28734.97 49384.44,28734.97 49384.44,25744.87 49072.91,25744.87 "/>
  <polygon class="fil0" points="49072.91,24915.39 49384.44,24915.39 49384.44,24331.8 49072.91,24331.8 "/>
  <path class="fil0" d="M51663.87 25673.08c-615.21,0 -860.84,333.31 -991.96,635.72 5.72,-83.97 -0.37,-468.72 -12.44,-563.93l-305.13 0c6.04,238.74 6.04,490.56 6.04,753.48l0 2236.62 311.53 0 0 -1528.2c0,-648.95 244.72,-1232.04 949.75,-1232.04 517.85,0 737.16,344.49 737.16,872.24l0 1888 311.53 0 0 -1936.87c0,-823.55 -471.61,-1125.02 -1006.48,-1125.02z"/>
  <polygon class="fil0" points="53647.42,28734.97 53959,28734.97 53959,25744.87 53647.42,25744.87 "/>
  <polygon class="fil0" points="53647.42,24915.39 53959,24915.39 53959,24331.8 53647.42,24331.8 "/>
  <path class="fil0" d="M57184.99 25744.87l-311.53 0 0 1538.22c0,849.13 -249.58,1222.07 -914.17,1222.07 -588.07,0 -725.04,-421.31 -725.04,-855.39l0 -1904.9 -305.68 0 0 1978.68c0,911.1 547.72,1083.21 983.16,1083.21 530.02,0 834.65,-236.38 961.73,-588.07 0.04,241.99 6.08,438.42 18.02,516.28l299.45 0c-0.09,-116.99 -5.94,-580.15 -5.94,-873.01l0 -2117.09z"/>
  <path class="fil0" d="M61213.19 25673.08c-526.43,0 -825.17,279.64 -975.62,589.03 -119.5,-379.32 -447.01,-589.03 -866.74,-589.03 -496.07,0 -770.93,302.74 -897.47,600.12 5.81,-172.24 -6.3,-427.37 -12.39,-528.33l-304.85 0c5.94,233.75 5.94,514.29 5.94,771.46l0 2218.64 311.3 0 0 -1645.06c0,-607.91 278.99,-1115.18 854.76,-1115.18 546.95,0 677.53,403.01 677.53,836.82l0 1923.42 305.26 0 0 -1722.01c0,-577.34 260.88,-1038.41 837.01,-1038.41 552.49,0 695.23,432.67 695.23,830.43l0 1929.99 311.08 0 0 -1967.26c0,-830.12 -478.19,-1094.63 -941.04,-1094.63z"/>
  <path class="fil0" d="M65765.69 25962.36c505.19,0 730.9,325.52 819.95,670.06l316.93 0c-53.1,-416.96 -364,-959.34 -1130.62,-959.34 -881.67,0 -1321.41,758.33 -1321.41,1579.12 0,996.42 532.1,1554.56 1285.38,1554.56 676.07,0 1023.73,-427.24 1166.65,-952.77l-317.02 0c-154,443.46 -415.2,663.49 -849.27,663.49 -623.24,0 -956.38,-567.65 -956.38,-1277.65 0,-743.79 356.28,-1277.47 985.79,-1277.47z"/>
  <path class="fil0" d="M68730.18 25673.08c-870.78,0 -1346.11,710.46 -1346.11,1567.07 0,902.85 504.28,1566.61 1315.92,1566.61 894.25,0 1357.46,-739.94 1357.46,-1572.82 0,-938.9 -528.34,-1560.86 -1327.27,-1560.86zm-6.31 2844.22l0 0c-629.92,0 -1010.43,-568.74 -1010.43,-1277.47 0,-715.57 321.97,-1277.47 998.45,-1277.47 659.5,0 1016.19,573.77 1016.19,1277.65 0,749.45 -362.45,1277.29 -1004.21,1277.29z"/>
  <path class="fil0" d="M73846.87 25673.08c-526.43,0 -825.25,279.64 -975.53,589.03 -119.59,-379.32 -447.19,-589.03 -866.83,-589.03 -496.11,0 -771.02,302.74 -897.37,600.12 5.63,-172.24 -6.4,-427.37 -12.48,-528.33l-304.91 0c6.09,233.75 6.09,514.29 6.09,771.46l0 2218.64 311.3 0 0 -1645.06c0,-607.91 278.81,-1115.18 854.67,-1115.18 546.94,0 677.52,403.01 677.52,836.82l0 1923.42 305.36 0 0 -1722.01c0,-577.34 260.83,-1038.41 837.01,-1038.41 552.39,0 695.18,432.67 695.18,830.43l0 1929.99 311.07 0 0 -1967.26c0,-830.12 -478.23,-1094.63 -941.08,-1094.63z"/>
  <path class="fil0" d="M77127.43 25673.08c-537.87,0 -866.06,250.61 -1050.6,606.19 0,-241.99 -0.32,-421.58 -12.16,-534.4l-305.23 0c6.09,227.5 6.09,490.11 6.09,735.23l0 3449.82 311.3 0 0 -1633.56c149.05,278.87 423.45,510.4 948.48,510.4 725.22,0 1300.63,-568.6 1300.63,-1644.47 0,-897.83 -492.08,-1489.21 -1198.51,-1489.21zm-94.59 2844.08l0 0c-742.24,0 -974.3,-492.6 -974.3,-1288.83 0,-808.6 296.78,-1259.72 1016.19,-1259.72 588.71,0 921.75,515.57 921.75,1206 0,820.47 -344.48,1342.55 -963.64,1342.55z"/>
  <path class="fil0" d="M80214.27 25673.08c-870.77,0 -1346.1,710.46 -1346.1,1567.07 0,902.85 504.28,1566.61 1315.92,1566.61 894.25,0 1357.5,-739.94 1357.5,-1572.82 0,-938.9 -528.34,-1560.86 -1327.32,-1560.86zm-6.26 2844.22l0 0c-629.96,0 -1010.52,-568.74 -1010.52,-1277.47 0,-715.57 322.06,-1277.47 998.49,-1277.47 659.51,0 1016.2,573.77 1016.2,1277.65 0,749.45 -362.45,1277.29 -1004.17,1277.29z"/>
  <path class="fil0" d="M82211.99 27874.28c97.4,366.06 361.05,589.21 808.24,589.21 504.24,0 710.65,-234.52 710.65,-549.08 0,-325.96 -137.61,-480.46 -773.83,-634.9 -745.06,-177.28 -928.46,-406.05 -928.46,-783.65 0,-394.58 298,-760.68 951.42,-760.68 653.43,0 962.87,394.63 1008.85,800.81l-298.19 0c-51.42,-240.32 -240.64,-531.96 -722.05,-531.96 -493.03,0 -636.22,240.14 -636.22,469.05 0,257.3 137.57,388.83 699.22,526.16 813.86,194.44 1014.47,463.29 1014.47,892.21 0,514.79 -424.04,840.9 -1031.67,840.9 -659.05,0 -1025.87,-343.14 -1106.24,-858.07l303.81 0z"/>
  <polygon class="fil0" points="84830.63,28734.97 85142.12,28734.97 85142.12,25744.87 84830.63,25744.87 "/>
  <polygon class="fil0" points="84830.63,24915.39 85142.12,24915.39 85142.12,24331.8 84830.63,24331.8 "/>
  <path class="fil0" d="M86580.63 24814.75l-311.48 0 0 930.12 -555.26 0 0 288.65 555.26 0 0 2069.85c0,479.33 215.13,673.45 603.23,673.45 126.8,0 272.36,-11.73 375.75,-53.85l0 -270.08c-95.22,29.49 -220.04,35.24 -308.99,35.24 -286.62,0 -358.51,-188.96 -358.51,-521.45l0 -1933.16 710.34 0 0 -288.65 -710.34 0 0 -930.12z"/>
  <path class="fil0" d="M88931.5 25673.08c-876.91,0 -1303.58,734.14 -1303.58,1591.25 0,760.05 355.24,1542.43 1267.77,1542.43 741.74,0 1059.49,-452.02 1184.89,-846.01l-317.43 0c-107.11,243.71 -296.78,556.55 -855.3,556.55 -571.64,0 -956.6,-475.75 -962.37,-1238.29l2200.14 0c6.08,-77.99 6.08,-161.33 6.08,-245.44 0,-566.24 -294.87,-1360.49 -1220.2,-1360.49zm-968.18 1337.26l0 0c65.18,-622.14 344.12,-1049.2 956.42,-1049.2 583.22,0 902.69,462.66 908.63,1049.2l-1865.05 0z"/>
  <path class="fil0" d="M93796.62 25673.08c-537.87,0 -866.1,250.61 -1050.6,606.19 0,-241.99 -0.32,-421.58 -12.21,-534.4l-305.17 0c6.08,227.5 6.08,490.11 6.08,735.23l0 3449.82 311.3 0 0 -1633.56c149,278.87 423.41,510.4 948.48,510.4 725.18,0 1300.59,-568.6 1300.59,-1644.47 0,-897.83 -492.04,-1489.21 -1198.47,-1489.21zm-94.63 2844.08l0 0c-742.2,0 -974.26,-492.6 -974.26,-1288.83 0,-808.6 296.78,-1259.72 1016.2,-1259.72 588.65,0 921.74,515.57 921.74,1206 0,820.47 -344.48,1342.55 -963.68,1342.55z"/>
  <path class="fil0" d="M97804.9 26619.92c0,-659.1 -384.65,-946.66 -1070.62,-946.84 -828.84,0 -1035.39,506.51 -1071.52,839.95l310.67 0c65.22,-244.49 154.81,-557.69 754.27,-557.69 676.57,0 766.16,396.36 766.16,693.43l0 302.28c-119.45,0 -316.75,0 -566.14,0 -898.47,0 -1408.65,299.42 -1408.65,957.75 0,448.75 299.73,897.96 995.54,897.96 615.26,0 877.5,-308.49 979.57,-528.47 11.76,253.09 29.73,385.26 53.65,456.68l298.96 0c-17.98,-95.16 -41.89,-309.07 -41.89,-572.63l0 -1542.42zm-305.23 700.76l0 0c0,640.2 -118.5,1203.82 -968.17,1203.82 -416.69,0 -683.29,-255.45 -683.29,-628.66 0,-509.17 408.38,-682.19 1069.8,-682.19 195.75,0 468.92,0 581.66,0l0 107.03z"/>
  <path class="fil0" d="M100091 25673.08c-615.12,0 -860.75,333.31 -991.92,635.72 5.77,-83.97 -0.32,-468.72 -12.53,-563.93l-305.04 0c5.95,238.74 5.95,490.56 5.95,753.48l0 2236.62 311.62 0 0 -1528.2c0,-648.95 244.68,-1232.04 949.71,-1232.04 517.85,0 737.07,344.49 737.07,872.24l0 1888 311.66 0 0 -1936.87c0,-823.55 -471.6,-1125.02 -1006.52,-1125.02z"/>
  <path class="fil0" d="M103140.04 25673.08c-876.86,0 -1303.59,734.14 -1303.59,1591.25 0,760.05 355.24,1542.43 1267.78,1542.43 741.74,0 1059.49,-452.02 1184.89,-846.01l-317.25 0c-107.29,243.71 -296.96,556.55 -855.44,556.55 -571.68,0 -956.6,-475.75 -962.41,-1238.29l2200.14 0c6.08,-77.99 6.08,-161.33 6.08,-245.44 0,-566.24 -294.87,-1360.49 -1220.2,-1360.49zm-968.18 1337.26l0 0c65.17,-622.14 344.12,-1049.2 956.42,-1049.2 583.26,0 902.69,462.66 908.63,1049.2l-1865.05 0z"/>
  <polygon class="fil0" points="105110.29,28734.97 105421.78,28734.97 105421.78,24331.8 105110.29,24331.8 "/>
  <path class="fil0" d="M107240.54 26997.2c-590.89,-142.76 -733.44,-278.82 -733.44,-551.11 0,-236.84 148.36,-491.02 664.18,-491.02 506.6,0 701.58,308.76 754.9,556.73l310.72 0c-47.39,-424.11 -370.76,-838.72 -1053.1,-838.72 -682.2,0 -993.82,384.62 -993.82,797.96 0,395.27 191.08,630.11 968.63,816.71 665.77,160.11 809.19,325.52 809.19,662.99 0,331.45 -213.31,573.58 -741.61,573.58 -469.74,0 -743.65,-230.9 -844.5,-616.34l-317.11 0c83.51,538.16 466.75,898.78 1155.03,898.78 635.59,0 1077.61,-337.52 1077.61,-880.66 0,-448.3 -208.24,-724.95 -1056.68,-928.9z"/>
  <path class="fil0" d="M6270.68 8406.71c113.28,88.79 273.94,104.56 405.71,27.43l2166.43 -1267.94c82.6,-48.34 187.11,-39.22 259.7,23.05 129.04,110.71 210.86,274.57 210.86,457.73l0 9490.1c0,134.88 108.31,208.22 244.76,316.29l701.74 396.26c135.18,0 244.76,-109.35 244.76,-244.24l0 -11231c0,-111.98 59.46,-215.6 156.27,-272.25l8283.98 -4848.35c171.99,-100.64 229.63,-321.35 128.76,-492.98l-107.66 -99.29c-3783.2,-1175.53 -8030.24,-817.49 -11717.44,1340.5 -314.05,183.82 -618.59,377.58 -913.56,580.59 -102.1,70.27 -162.04,187.04 -161.83,310.79l9.08 5325.9c0.13,72.45 31.36,142.68 88.44,187.41z"/>
  <path class="fil0" d="M19299.39 10190.76c-200.93,-140.39 -489.13,-17.51 -508.98,226.45 -0.8,9.75 -1.2,19.6 -1.2,29.56l0 2449.61c0,198.95 161.61,360.23 360.98,360.23l360.99 0c199.36,0 360.98,-161.28 360.98,-360.23l0 -2111.4c0,-121.66 -59.48,-235.69 -159.35,-305.45l-413.42 -288.77z"/>
  <path class="fil0" d="M218.09 15833.14l5182.2 2962.61c33.46,19.13 72.7,27.63 110.65,20.89 171.01,-30.36 300.89,-179.83 300.89,-359.67l0 -14867.67c0,-165.51 -110.04,-305.15 -260.89,-350 -55.61,-16.53 -116.2,-2.06 -161.21,34.47 -3288.64,2668.47 -5389.73,6738.21 -5389.73,11297.7 0,324.66 10.78,646.79 31.81,966.13 8.11,123.36 78.78,234.09 186.28,295.54z"/>
  <path class="fil0" d="M14895.07 4057.58l-667.86 374.04c-71.22,56.38 -112.73,142.1 -112.73,232.82l0 7961.75 0 3530.34 0 7240.74 0 144.1c0,89.52 -32.73,171.43 -86.89,234.43 -94.57,110.02 -255.91,134.88 -385.84,70.04l-313.77 -156.55 -12670.41 -7155.92c-151.33,-85.48 -332.8,-62.76 -447.52,44.07 -41.19,38.39 -59.35,95.15 -48.27,151.33 831.53,4213.42 3526.23,8127.48 7696.62,10482.81 330.01,186.4 663.7,359.67 1000.35,520.33 53.6,25.57 115.63,23.93 165.36,-3.94l5335.19 -2988.08c7.65,-4.29 14.65,-9.42 21.43,-14.77l667.86 -374.06c71.22,-56.36 112.75,-142.1 112.75,-232.82l0 -7961.71 0 -3530.34 0 -7240.76 0 -144.1c0,-89.54 32.72,-171.43 86.89,-234.43 94.57,-110.02 255.91,-134.88 385.8,-70.05l313.78 156.56 12670.42 7155.94c151.31,85.48 332.8,62.76 447.5,-44.07 41.22,-38.39 59.37,-95.16 48.29,-151.33 -831.55,-4213.44 -3526.23,-8127.5 -7696.61,-10482.84 -330.03,-186.39 -663.71,-359.66 -1000.38,-520.34 -53.6,-25.56 -115.6,-23.91 -165.33,3.94l-5335.18 2988.1c-7.67,4.29 -14.67,9.42 -21.45,14.77z"/>
  <path class="fil0" d="M29200.45 13358.51c-4.13,-56.41 -36.36,-107.01 -85.54,-135.14l-5275.51 -3015.95c-36,-20.56 -78.35,-27.5 -119.02,-19.29 -166.88,33.68 -292.52,181.2 -292.52,358.07l0 3773.11c0,198.95 -161.61,360.23 -360.99,360.23l-4151.31 0c-149.52,0 -270.75,120.98 -270.75,270.19l0 18.01c0,149.21 121.23,270.17 270.75,270.17l4263.64 0c144.32,47.16 248.66,182.45 248.66,342.22l0 9833.74c0,165.49 110.06,305.17 260.93,350 54.19,16.11 113.12,4.49 156.99,-31.09 3291.06,-2668.41 5393.93,-6739.66 5393.93,-11301.06 0,-360.99 -13.34,-718.83 -39.26,-1073.21z"/>
  <path class="fil0" d="M18591.23 22890.09l-6824.41 3991.11 -1508.1 881.98c-172,100.65 -229.63,321.36 -128.77,492.96l107.66 99.33c3783.22,1175.51 8030.22,817.47 11717.45,-1340.53 316.35,-185.13 623.02,-380.42 920.02,-585.04 98.01,-67.52 155.57,-179.64 155.37,-298.46l-5.64 -3310.55 5.97 0 0 -2042.19c0,-211.21 -229.61,-342.81 -412.42,-236.38l-3990.29 2322.84c-11.72,8.94 -23.92,17.39 -36.84,24.93z"/>
  <path class="fil0" d="M19299.39 19312.44l413.42 -288.79c99.87,-69.77 159.35,-183.77 159.35,-305.43l0 -2111.4c0,-198.95 -161.62,-360.23 -360.98,-360.23l-360.99 0c-199.37,0 -360.98,161.28 -360.98,360.23l0 2449.61c0,9.95 0.4,19.81 1.2,29.54 19.85,243.98 308.05,366.83 508.98,226.47z"/>
  <path class="fil0" d="M36253.13 6547.52l0 8356.64c0,4734.06 2763.82,6030.78 5981.41,6030.78 3135.08,0 5981.41,-1234.97 5981.41,-6092.52l0 -8294.9 -3093.84 0 0 8438.98c0,2593.43 -1093.14,3540.25 -2846.32,3540.25 -1546.92,0 -2949.45,-802.73 -2949.45,-3540.25l0 -8438.98 -3073.21 0zm13530.36 14181.6l8642.1 0 350.63 -2325.87 -5548.27 0 5177.01 -6030.77 0 -2305.29 -8373.97 0 0 2325.87 5032.63 0 -5280.13 6113.1 0 2222.96zm10972.79 0l6435.17 0c3011.33,0 4929.5,-1811.3 4929.5,-4240.07 0,-1873.04 -1258.15,-2881.61 -2227.56,-3252.09 969.41,-432.24 1815.05,-1461.39 1815.05,-3066.85 0,-1852.46 -1299.41,-3622.59 -4743.87,-3622.59l-6208.29 0 0 14181.6zm3011.32 -8583.06l0 -3231.5 2949.47 0c1175.65,0 1959.42,535.15 1959.42,1564.29 0,1008.57 -598.15,1667.21 -2062.56,1667.21l-2846.33 0zm0 2367.03l2763.84 0c1691.29,0 2433.81,720.4 2433.81,1873.05 0,1276.13 -742.52,1975.95 -2413.19,1975.95l-2784.46 0 0 -3849zm15304.16 -4692.89c-3382.59,0 -5383.27,2325.86 -5383.27,5619.13 0,3169.75 1938.81,5536.78 5238.89,5536.78 3382.59,0 5321.39,-2367.03 5321.39,-5598.54 0,-3334.42 -2041.92,-5557.37 -5177.01,-5557.37zm-123.75 2325.86c1485.03,0 2310.06,1049.73 2310.06,3272.67 0,2037.71 -804.39,3252.1 -2268.81,3252.1 -1423.16,0 -2310.06,-1214.39 -2310.06,-3272.68 0,-2243.53 907.52,-3252.09 2268.81,-3252.09zm7342.7 8583.06l2970.07 0 0 -5927.87c0,-1893.62 701.27,-2593.44 1959.43,-2593.44 1320.04,0 1711.92,864.48 1711.92,2078.87l0 6442.44 2949.46 0 0 -6771.77c0,-2675.77 -1381.91,-4137.15 -3526.97,-4137.15 -1876.93,0 -2743.2,946.81 -3093.84,1605.46 -20.62,-329.32 -61.88,-1070.3 -123.74,-1358.47l-2866.96 0c20.63,802.74 20.63,1790.71 20.63,2696.36l0 7965.57zm19058.01 -15025.49l0 5145.71c-226.89,-473.4 -1051.92,-1029.14 -2598.82,-1029.14 -3031.97,0 -4847.01,2387.61 -4847.01,5660.29 0,3334.42 1711.92,5495.62 4413.87,5495.62 1588.16,0 2516.32,-514.57 3031.96,-1358.47 20.62,247 82.5,782.15 144.37,1111.48l2825.7 0c-20.62,-967.4 -20.62,-1955.38 -20.62,-2922.77l0 -12102.72 -2949.45 0zm-4413.88 9715.1c0,-2017.11 783.78,-3231.5 2330.69,-3231.5 1938.8,0 2206.93,1379.05 2206.93,3210.92 0,1523.14 -247.5,3210.93 -2268.8,3210.93 -1464.42,0 -2268.82,-1111.48 -2268.82,-3190.35z"/>
 </g>
</svg>
